<svg width="21" height="20" viewBox="0 0 21 20" fill="none" xmlns="http://www.w3.org/2000/svg">
<path d="M19 8.4128V14.0909V14.0909C19 16.8021 16.8021 19 14.0909 19H5.90909V19C3.19788 19 1 16.8021 1 14.0909V5.90909V5.90909C1 3.19788 3.19788 1 5.90909 1V1H11.652" stroke="#3C424F" stroke-width="2"/>
<path d="M11.5051 11.5062L19.506 3.50522C20.2871 2.72417 20.2871 1.45784 19.506 0.67679C18.725 -0.104259 17.4587 -0.104259 16.6776 0.67679L8.67668 8.67773C8.25779 9.09661 7.41247 10.8579 6.71861 12.4012C6.33653 13.251 7.22648 14.0722 8.04442 13.626C9.4769 12.8444 11.0925 11.9188 11.5051 11.5062Z" fill="#3C424F"/>
</svg>
