<svg viewBox="0 0 27 27" fill="none" xmlns="http://www.w3.org/2000/svg">
<circle cx="13.5" cy="13.5" r="4.5" stroke="#BCC5D7" stroke-width="1.5"/>
<path d="M24.7135 10.723H22.3738C21.9988 10.723 21.6887 10.5147 21.544 10.1692C21.4016 9.82081 21.474 9.45448 21.7384 9.19L23.3935 7.53545C23.6354 7.29355 23.7685 6.97005 23.7685 6.62687C23.7685 6.28311 23.6354 5.95961 23.3935 5.71539L21.2841 3.60654C20.798 3.12042 19.9508 3.12042 19.4647 3.60654L17.8096 5.26109C17.5451 5.52557 17.1788 5.60022 16.8333 5.45554C16.485 5.31086 16.2772 5.00125 16.2772 4.62624V2.28649C16.2772 1.5764 15.7008 1 14.9907 1H12.0087C11.2992 1 10.7228 1.5764 10.7228 2.28649V4.62624C10.7228 5.00125 10.5145 5.31086 10.169 5.45554C9.82118 5.60022 9.45428 5.52557 9.18981 5.26109L7.5353 3.60654C7.04977 3.12042 6.20139 3.12042 5.71528 3.60654L3.60648 5.71539C3.36458 5.95729 3.2309 6.28311 3.2309 6.62687C3.2309 6.97005 3.36458 7.29355 3.60648 7.53545L5.261 9.19C5.52546 9.45448 5.5978 9.82081 5.45602 10.1692C5.31366 10.5147 5.00116 10.723 4.62674 10.723H2.28704C1.57697 10.723 1 11.2994 1 12.0089V14.9911C1 15.7012 1.57697 16.2776 2.28704 16.2776H4.62674C5.00116 16.2776 5.31134 16.4853 5.45602 16.8337C5.60069 17.1792 5.52546 17.5455 5.261 17.81L3.60648 19.4645C3.36458 19.7065 3.2309 20.0323 3.2309 20.3737C3.2309 20.7192 3.36458 21.0427 3.60648 21.2846L5.71528 23.394C6.20139 23.8796 7.04977 23.8796 7.5353 23.394L9.18981 21.7389C9.45428 21.4744 9.82118 21.4021 10.169 21.5445C10.5145 21.6891 10.7228 21.9988 10.7228 22.3743V24.7141C10.7228 25.4236 11.2992 26 12.0087 26H14.9907C15.7008 26 16.2772 25.4236 16.2772 24.7141V22.3743C16.2772 21.9988 16.485 21.6891 16.831 21.5445C17.1788 21.3998 17.5451 21.4744 17.8096 21.7389L19.4647 23.394C19.9508 23.8796 20.798 23.8796 21.2841 23.394L23.3935 21.2846C23.6354 21.0427 23.7685 20.7192 23.7685 20.3737C23.7685 20.0323 23.6354 19.7088 23.3935 19.4645L21.7384 17.81C21.474 17.5455 21.4016 17.1792 21.544 16.8337C21.6869 16.4853 21.9988 16.2776 22.3738 16.2776H24.7135C25.4236 16.2776 26 15.7012 26 14.9911V12.0089C26 11.2994 25.4236 10.723 24.7135 10.723" stroke="#BCC5D7" stroke-width="1.5"/>
</svg>
